<svg id="Layer_1" xmlns="http://www.w3.org/2000/svg" xmlns:xlink="http://www.w3.org/1999/xlink" width="2160" height="791.734" viewBox="0 0 2160 791.734" enable-background="new 0 0 2160 791.734"><path fill="#38c4e3" d="M774.783 152.576C774.783 68.305 677.197.0 556.833.0c-120.37.0-217.954 68.305-217.954 152.576.0 71.569 70.425 131.604 165.434 148.086 32.714 69.651 126.355 58.028 126.355 58.028s-33.402-8.729-42.194-55.175C693.838 292.78 774.783 229.306 774.783 152.576zm-185.87 76.323c-19.089 37.317-73.727 31.088-73.727 31.088s19.482-4.68 24.619-29.57c-61.459-5.75-108.656-39.757-108.656-80.867.0-45.163 56.908-81.768 127.117-81.768 70.232.0 127.144 36.605 127.144 81.768C685.41 187.895 644.312 220.073 588.913 228.899z"/><g><path fill="#583376" d="M144.979 681.038H114.61L0 332.303h39.184l90.613 282.125 90.61-282.125h39.184L144.979 681.038z"/><path fill="#583376" d="M442.768 656.549c-16.651 16.652-39.677 27.43-69.061 27.43-29.39.0-52.408-10.777-69.067-27.43-24.488-24.979-29.387-58.773-29.387-96.002.0-37.221 4.898-71.018 29.387-95.998 16.659-16.658 39.677-27.428 69.067-27.428 29.384.0 52.409 10.77 69.061 27.428 24.489 24.98 29.384 58.777 29.384 95.998C472.152 597.776 467.257 631.571 442.768 656.549zM417.786 486.1c-11.266-11.266-26.938-17.633-44.078-17.633-17.146.0-32.331 6.367-43.594 17.633-17.636 17.633-19.593 47.512-19.593 74.447.0 26.941 1.957 56.818 19.593 74.449 11.263 11.268 26.448 17.637 43.594 17.637 17.14.0 32.812-6.369 44.078-17.637 17.633-17.631 19.103-47.508 19.103-74.449C436.889 533.612 435.419 503.733 417.786 486.1z"/><path fill="#583376" d="M547.589 681.038V440.055h35.267v240.982H547.589z"/><path fill="#583376" d="M765.068 683.979c-60.74.0-106.781-41.146-106.781-123.432.0-82.283 46.042-123.426 106.781-123.426 33.304.0 54.365 8.814 79.345 35.754l-24.001 22.531c-18.124-20.082-32.328-26.939-55.344-26.939-23.513.0-43.103 9.309-55.841 27.43-11.266 15.674-15.673 34.287-15.673 64.65.0 30.371 4.407 48.982 15.673 64.656 12.738 18.123 32.328 27.43 55.841 27.43 23.016.0 37.22-7.35 55.344-27.43l24.001 23.02C819.434 675.159 798.372 683.979 765.068 683.979z"/><path fill="#583376" d="M926.146 569.856c0 52.898 24.982 83.264 71.024 83.264 27.921.0 44.082-8.324 63.184-27.43l23.997 21.062c-24.487 24.492-47.019 37.227-88.159 37.227-63.672.0-105.309-38.205-105.309-123.432.0-77.875 37.714-123.426 98.941-123.426 62.203.0 98.938 45.059 98.938 116.572v16.162H926.146zm120.001-66.613c-9.303-22.041-30.856-36.244-56.323-36.244-25.469.0-47.02 14.203-56.326 36.244-5.389 13.227-6.367 20.568-7.353 40.162h127.35C1052.518 523.811 1051.536 516.469 1046.147 503.243z"/><path fill="#583376" d="M1259.713 683.979c-52.413.0-86.698-13.225-119.517-46.041l25.473-25.473c28.899 28.898 55.836 38.205 95.02 38.205 50.938.0 82.286-23.998 82.286-64.65.0-18.121-5.386-33.795-16.652-43.594-11.266-9.795-20.08-12.734-45.551-16.652l-40.652-6.367c-27.43-4.41-48.983-13.225-64.166-26.449-17.634-15.676-26.448-37.229-26.448-65.143.0-59.268 42.609-98.45 111.677-98.45 44.572.0 73.956 11.269 103.833 38.204l-24.001 23.998c-21.55-19.586-44.568-29.877-81.301-29.877-46.536.0-73.473 25.964-73.473 64.657.0 17.143 4.896 30.855 15.674 40.162 10.775 9.305 28.899 16.164 47.021 19.104l38.204 5.875c32.819 4.898 48.977 11.756 63.672 24.488 19.103 16.166 29.386 40.168 29.386 69.066C1380.196 646.264 1332.199 683.979 1259.713 683.979z"/><path fill="#583376" d="M1588.38 681.038v-23.016c-19.59 19.59-37.227 25.957-69.551 25.957-33.311.0-52.898-6.367-68.082-22.041-11.756-11.752-18.121-29.877-18.121-48.982.0-42.121 29.383-69.551 83.266-69.551h72.488v-23.02c0-35.264-17.633-52.896-61.715-52.896-30.855.0-46.529 7.346-60.734 27.428l-23.998-22.041c21.551-27.918 46.041-35.754 85.223-35.754 64.654.0 96.491 27.916 96.491 80.326v163.59H1588.38zm0-111.182h-67.594c-36.242.0-53.875 14.695-53.875 42.609.0 27.92 17.139 41.146 55.344 41.146 20.576.0 38.699-1.471 53.881-16.164 8.327-7.838 12.244-21.551 12.244-41.635V569.856z"/><path fill="#583376" d="M1786.754 791.733c-36.246.0-56.326-9.307-81.797-32.326l23.02-22.531c17.637 15.674 29.877 24.002 57.798 24.002 46.529.0 66.123-32.816 66.123-73.961v-37.715c-19.594 24.979-41.635 31.346-67.592 31.346-24.488.0-45.551-8.814-58.29-21.547-23.997-24.004-29.387-61.225-29.387-100.41.0-39.184 5.39-76.41 29.387-100.408 12.739-12.738 34.285-21.061 58.781-21.061 26.445.0 47.997 5.875 67.591 31.346v-28.412h34.772v248.328C1887.16 748.141 1849.937 791.733 1786.754 791.733zM1792.143 468.467c-52.409.0-60.246 45.061-60.246 90.123.0 45.061 7.837 90.123 60.246 90.123s59.755-45.062 59.755-90.123C1851.897 513.528 1844.552 468.467 1792.143 468.467z"/><path fill="#583376" d="M1997.377 569.856c0 52.898 24.98 83.264 71.02 83.264 27.922.0 44.082-8.324 63.189-27.43l23.996 21.062c-24.488 24.492-47.02 37.227-88.162 37.227-63.672.0-105.309-38.205-105.309-123.432.0-77.875 37.713-123.426 98.939-123.426 62.207.0 98.942 45.059 98.942 116.572v16.162H1997.377zm120-66.613c-9.301-22.041-30.855-36.244-56.326-36.244-25.469.0-47.02 14.203-56.326 36.244-5.389 13.227-6.365 20.568-7.348 40.162h127.35C2123.748 523.811 2122.764 516.469 2117.377 503.243z"/></g></svg>